HIERARCHY
ROOT Hips
{
	OFFSET -0.001795 -0.223333 0.028219
	CHANNELS 6 Xposition Yposition Zposition Zrotation Yrotation Xrotation
	JOINT LeftUpLeg
	{
		OFFSET 0.069520 -0.091406 -0.006815
		CHANNELS 3 Zrotation Yrotation Xrotation
		JOINT LeftLeg
		{
			OFFSET 0.034277 -0.375199 -0.004496
			CHANNELS 3 Zrotation Yrotation Xrotation
			JOINT LeftFoot
			{
				OFFSET -0.013596 -0.397961 -0.043693
				CHANNELS 3 Zrotation Yrotation Xrotation
				JOINT LeftToe
				{
					OFFSET 0.026358 -0.055791 0.119288
					CHANNELS 3 Zrotation Yrotation Xrotation
					End Site
					{
						OFFSET 0.000000 0.000000 0.000000
					}
				}
			}
		}
	}
	JOINT RightUpLeg
	{
		OFFSET -0.067670 -0.090522 -0.004320
		CHANNELS 3 Zrotation Yrotation Xrotation
		JOINT RightLeg
		{
			OFFSET -0.038290 -0.382569 -0.008850
			CHANNELS 3 Zrotation Yrotation Xrotation
			JOINT RightFoot
			{
				OFFSET 0.015774 -0.398415 -0.042312
				CHANNELS 3 Zrotation Yrotation Xrotation
				JOINT RightToe
				{
					OFFSET -0.025372 -0.048144 0.123348
					CHANNELS 3 Zrotation Yrotation Xrotation
					End Site
					{
						OFFSET 0.000000 0.000000 0.000000
					}
				}
			}
		}
	}
	JOINT Spine
	{
		OFFSET -0.002533 0.108963 -0.026696
		CHANNELS 3 Zrotation Yrotation Xrotation
		JOINT Spine1
		{
			OFFSET 0.005487 0.135180 0.001092
			CHANNELS 3 Zrotation Yrotation Xrotation
			JOINT Spine2
			{
				OFFSET 0.001457 0.052922 0.025425
				CHANNELS 3 Zrotation Yrotation Xrotation
				JOINT Neck
				{
					OFFSET -0.002778 0.213870 -0.042857
					CHANNELS 3 Zrotation Yrotation Xrotation
					JOINT Head
					{
						OFFSET 0.005152 0.064970 0.051349
						CHANNELS 3 Zrotation Yrotation Xrotation
						End Site
						{
							OFFSET 0.000000 0.000000 0.000000
						}
					}
				}
				JOINT LeftShoulder
				{
					OFFSET 0.078845 0.121749 -0.034090
					CHANNELS 3 Zrotation Yrotation Xrotation
					JOINT LeftArm
					{
						OFFSET 0.090977 0.030469 -0.008868
						CHANNELS 3 Zrotation Yrotation Xrotation
						JOINT LeftForeArm
						{
							OFFSET 0.259612 -0.012772 -0.027456
							CHANNELS 3 Zrotation Yrotation Xrotation
							JOINT LeftHand
							{
								OFFSET 0.249234 0.008986 -0.001171
								CHANNELS 3 Zrotation Yrotation Xrotation
								End Site
								{
									OFFSET 0.000000 0.000000 0.000000
								}
							}
						}
					}
				}
				JOINT RightShoulder
				{
					OFFSET -0.081759 0.118833 -0.038615
					CHANNELS 3 Zrotation Yrotation Xrotation
					JOINT RightArm
					{
						OFFSET -0.096012 0.032551 -0.009143
						CHANNELS 3 Zrotation Yrotation Xrotation
						JOINT RightForeArm
						{
							OFFSET -0.253742 -0.013329 -0.021401
							CHANNELS 3 Zrotation Yrotation Xrotation
							JOINT RightHand
							{
								OFFSET -0.255298 0.007772 -0.005559
								CHANNELS 3 Zrotation Yrotation Xrotation
								End Site
								{
									OFFSET 0.000000 0.000000 0.000000
								}
							}
						}
					}
				}
			}
		}
	}
}
MOTION
Frames: 17
Frame Time: 0.050000
0.000000 0.781700 0.000000 1.018578 -6.998504 6.483895 7.313621 0.390301 -49.015361 -7.462902 7.005897 72.372141 8.647920 16.448418 -16.239696 0.000000 0.000000 0.000000 -4.461442 1.285108 -15.448754 8.484683 -0.510526 57.118423 -4.521707 -5.948051 -13.328673 0.000000 0.000000 0.000000 6.685501 -4.416903 62.050399 -7.325237 0.784579 -59.902947 4.905247 11.613615 33.296931 16.928818 -8.976499 -22.793514 0.000000 0.000000 0.000000 -35.727452 -8.402324 -0.531058 -32.291061 14.246913 -8.129684 -37.769068 -69.263906 28.662225 0.000000 0.000000 0.000000 35.951941 11.991257 11.583076 33.478452 24.848105 -1.030984 -18.287526 43.710259 -4.243991 0.000000 0.000000 0.000000
-0.008272 0.782851 0.124372 0.455900 -10.599053 10.262073 10.520369 4.419942 -60.617666 -9.737701 6.581348 53.394117 9.856677 19.648074 -6.121578 0.000000 0.000000 0.000000 -3.499262 1.075490 -11.324579 4.613561 3.116155 54.261334 0.188738 0.202585 0.438897 0.000000 0.000000 0.000000 0.737936 0.372123 56.523901 1.551971 1.779238 -58.175957 5.835933 20.060975 32.122494 13.019546 -3.703789 -26.162609 0.000000 0.000000 0.000000 -32.849513 -3.924978 -6.930016 -31.859854 20.123891 -8.451510 -59.165074 -63.653838 38.981663 0.000000 0.000000 0.000000 32.544032 8.635351 11.300972 33.900875 33.284328 0.890666 -18.717766 52.972217 -4.463638 0.000000 0.000000 0.000000
-0.019696 0.779540 0.263070 2.448207 -13.270224 10.943257 10.570109 5.978941 -63.064638 -12.689473 5.765334 34.972202 11.298492 21.781837 1.181805 0.000000 0.000000 0.000000 -6.348656 0.449651 1.411230 0.507628 4.592403 44.268476 -0.459717 1.419588 -3.612284 0.000000 0.000000 0.000000 -1.753885 2.318647 53.461052 -5.206625 1.343275 -61.393676 8.180367 16.196157 36.322090 9.058049 -2.529514 -23.405795 0.000000 0.000000 0.000000 -30.967654 0.069726 -6.997299 -30.256828 20.543351 -8.786624 -69.091137 -69.319955 51.597949 0.000000 0.000000 0.000000 29.467834 10.570469 10.573973 32.024844 37.160890 1.577505 -16.031992 60.595380 -3.639849 0.000000 0.000000 0.000000
-0.032853 0.768290 0.416472 3.677729 -14.039281 12.855732 9.920398 6.398429 -66.095374 -14.212563 6.192376 33.363832 9.260078 18.019632 8.678454 0.000000 0.000000 0.000000 -8.641192 0.857426 11.805121 -1.007793 3.845686 35.845028 3.471288 3.035130 7.184490 0.000000 0.000000 0.000000 -5.890831 4.194504 48.161225 -5.190696 1.466192 -56.617868 7.268209 18.152529 32.327185 14.065454 -6.389570 -20.474794 0.000000 0.000000 0.000000 -30.321727 1.991518 -8.920636 -27.097454 15.768416 -6.408898 -78.516916 -70.834187 60.496506 0.000000 0.000000 0.000000 24.948542 8.932065 8.947891 38.433763 39.979961 4.548030 -15.662231 63.392750 -2.376204 0.000000 0.000000 0.000000
-0.044432 0.747427 0.574345 5.523803 -11.679119 12.397547 4.805457 1.913489 -68.399728 -10.869812 6.152158 47.120724 9.642003 19.161429 2.485541 0.000000 0.000000 0.000000 -7.784036 0.696678 19.183629 -3.105739 4.535756 36.939990 5.364215 3.296930 13.211450 0.000000 0.000000 0.000000 -7.738442 4.830374 49.718778 -10.084961 1.064144 -56.833849 7.991950 12.367610 31.089919 14.753044 -7.926109 -19.337203 0.000000 0.000000 0.000000 -33.750339 -5.209658 -2.652310 -26.320942 7.541046 -4.966868 -79.233310 -78.743734 70.263944 0.000000 0.000000 0.000000 23.644829 10.368828 8.148393 42.994537 41.771361 7.129962 -16.837708 65.763954 -3.682807 0.000000 0.000000 0.000000
-0.050064 0.726717 0.721925 5.444104 -9.246647 10.965423 1.154593 -1.744663 -68.154130 -8.335565 5.879923 61.727117 11.402482 23.487382 -8.051985 0.000000 0.000000 0.000000 -7.884499 0.433698 13.781809 0.710030 4.986604 56.070864 3.539601 1.468658 11.353834 0.000000 0.000000 0.000000 -8.170529 4.971960 54.207707 -6.015634 1.223823 -54.520755 1.781158 10.973470 27.907254 18.977454 -11.653183 -17.134974 0.000000 0.000000 0.000000 -35.664501 -12.373339 2.759372 -24.767328 -7.745967 -2.243788 22.244430 -85.857805 -17.781875 0.000000 0.000000 0.000000 25.149118 16.301007 11.832164 36.891954 42.028497 5.688151 -26.813670 61.908214 -10.229623 0.000000 0.000000 0.000000
-0.052033 0.715798 0.860934 5.549805 -6.507403 10.438672 -0.238190 -3.832554 -64.394811 -7.980103 6.271932 71.815902 12.651779 28.284436 -17.417862 0.000000 0.000000 0.000000 -8.602852 0.500992 1.639206 4.857285 2.767360 75.221724 -1.463213 -4.925829 3.049996 0.000000 0.000000 0.000000 -8.061637 4.679303 59.904269 -0.772489 1.420935 -55.719604 -2.313787 8.466202 29.470777 20.218824 -12.807781 -18.225854 0.000000 0.000000 0.000000 -40.131941 -21.916914 11.366253 -14.428305 -23.989583 -0.742627 64.899691 -73.194435 -47.204382 0.000000 0.000000 0.000000 28.377819 19.313010 13.909930 29.239907 41.105476 3.128240 -30.975864 55.996762 -12.227137 0.000000 0.000000 0.000000
-0.052334 0.717686 0.997741 4.439276 -4.198738 9.624479 0.428319 -3.871459 -55.914593 -8.193625 6.718320 77.241488 11.904268 28.042554 -25.654479 0.000000 0.000000 0.000000 -7.081405 0.950498 -14.246221 5.886521 0.996060 91.275365 -4.757039 -10.260678 -6.789718 0.000000 0.000000 0.000000 -4.758547 2.196009 68.998645 -4.173214 1.032611 -64.310375 -1.630032 -0.463184 35.893373 18.209347 -17.185800 -9.530978 0.000000 0.000000 0.000000 -44.558707 -25.528637 20.143188 -0.626297 -31.821021 -3.169243 77.977072 -65.962605 -52.933798 0.000000 0.000000 0.000000 33.917176 23.642640 14.925901 22.941032 34.108264 0.365250 -25.672032 54.604817 -10.582288 0.000000 0.000000 0.000000
-0.052385 0.732928 1.140839 2.201254 -6.126427 8.351927 2.856629 -1.833213 -45.939238 -7.628372 7.680821 77.696321 13.077756 28.254664 -12.563751 0.000000 0.000000 0.000000 -4.959123 2.900201 -34.405334 7.519467 0.370909 102.256072 -7.389441 -17.896358 -14.667271 0.000000 0.000000 0.000000 -2.896021 2.192322 80.572138 -0.047758 1.545606 -79.981346 -2.579722 1.128523 50.509412 18.580856 -23.679414 -5.864037 0.000000 0.000000 0.000000 -45.585527 -28.011586 22.197687 7.444542 -35.375174 -5.289210 103.335657 -62.934369 -74.510114 0.000000 0.000000 0.000000 42.140628 22.872561 16.907451 11.700089 31.621167 -2.616140 -28.499579 55.811010 -13.508765 0.000000 0.000000 0.000000
-0.052658 0.753328 1.295316 -0.375464 -6.815476 8.690126 4.721079 -0.933915 -31.396460 -5.881567 6.204502 71.337042 10.071229 20.581831 -1.885426 0.000000 0.000000 0.000000 -5.781545 5.077925 -54.182684 11.933822 -7.117210 101.048158 -9.083246 -26.479309 -24.643502 0.000000 0.000000 0.000000 1.497372 -1.648550 89.924935 0.740227 1.569196 -102.296719 -1.793381 0.619345 69.772211 -17.614263 -28.614119 118.293269 0.000000 0.000000 0.000000 -57.869883 -26.231562 23.693019 12.798864 -34.308758 -6.134422 108.272207 -68.529840 -89.421387 0.000000 0.000000 0.000000 46.897084 21.747016 16.693379 7.912672 25.458014 -3.822127 -29.549001 57.090507 -16.491911 0.000000 0.000000 0.000000
-0.057202 0.764333 1.465410 -2.683787 -9.242256 8.370987 7.569670 -0.174710 -18.092301 -5.197282 6.676350 66.616869 2.135333 8.884510 17.356676 0.000000 0.000000 0.000000 -8.444786 6.607927 -68.727139 20.299801 -15.690656 87.885662 -8.637228 -31.457705 -36.138749 0.000000 0.000000 0.000000 6.274383 -7.310642 104.588293 13.959379 15.834104 -147.600914 4.544461 22.404414 101.307068 -20.702599 -9.851930 136.138032 0.000000 0.000000 0.000000 -65.384827 -24.989893 11.507082 3.130165 -27.316065 -2.990847 179.119027 -86.048212 -179.428517 0.000000 0.000000 0.000000 47.989851 16.953390 21.664741 7.166537 18.783968 -6.169735 -28.819060 59.614207 -22.227908 0.000000 0.000000 0.000000
-0.067968 0.746494 1.647952 1.205129 -7.848387 4.432123 5.375655 -0.054428 -0.661132 -1.710998 2.742421 64.778958 -8.339565 -6.071777 19.097769 0.000000 0.000000 0.000000 -17.668872 0.197454 -73.652336 34.268087 -27.216897 75.646355 -7.874675 -37.700285 -43.244743 0.000000 0.000000 0.000000 13.765409 -28.410707 123.657537 165.167898 28.267621 -54.500881 168.232256 12.240956 -147.918960 -37.671734 42.795519 115.025553 0.000000 0.000000 0.000000 -78.721988 -19.768905 -5.869328 -2.331217 -6.482377 12.558431 -48.542310 -71.680545 129.196060 0.000000 0.000000 0.000000 28.557589 -14.493582 102.086245 -20.392398 34.972677 -14.529329 -61.019460 10.265968 -22.247193 0.000000 0.000000 0.000000
-0.084345 0.699518 1.833463 7.121020 2.165661 -17.986382 7.348950 0.781590 36.464857 10.226902 -11.095986 60.602061 -11.482490 -14.819322 12.290627 0.000000 0.000000 0.000000 -26.042355 -7.353068 -49.480095 46.686904 -40.063224 75.596899 -4.619091 -37.164149 -67.456091 0.000000 0.000000 0.000000 60.538935 -74.968679 100.128300 12.654252 37.598332 170.622097 127.876360 55.780425 143.743260 -27.970000 9.498003 118.823854 0.000000 0.000000 0.000000 -68.994044 -20.596143 -52.134106 26.864706 21.034452 9.102705 -87.217044 0.583344 47.640600 0.000000 0.000000 0.000000 41.874837 -17.954409 29.092833 26.500978 -28.253862 -14.952749 29.604830 70.816771 8.571615 0.000000 0.000000 0.000000
-0.102675 0.624701 2.012003 8.831731 15.804328 -49.196289 13.254099 -12.604594 77.162067 28.654403 -20.966637 49.414810 -14.892011 -23.981243 9.513994 0.000000 0.000000 0.000000 -48.050661 -15.402213 -12.000397 77.240985 -59.669089 68.994319 -5.756817 -33.962912 -85.563250 0.000000 0.000000 0.000000 157.907994 55.913464 -7.493192 1.133378 38.244050 151.343297 -98.069168 -62.370627 102.473637 66.656414 -63.484433 29.833728 0.000000 0.000000 0.000000 -61.320845 11.887474 33.621546 -9.509811 20.284144 -8.180660 -115.721841 -45.661691 38.610213 0.000000 0.000000 0.000000 -12.367580 -24.368145 0.226403 -50.178115 -49.784891 10.476786 90.535699 -21.509840 -33.450034 0.000000 0.000000 0.000000
-0.121931 0.527754 2.176305 2.051412 10.645221 -67.596662 24.171427 -32.068219 100.964593 43.147659 -22.250024 37.327808 -14.459876 -26.422555 8.722335 0.000000 0.000000 0.000000 -54.880351 -21.500168 3.649625 156.391506 -32.423091 5.439428 -4.782811 -51.984389 -90.599822 0.000000 0.000000 0.000000 7.713952 27.545499 -125.814597 -4.841836 16.595067 141.378547 -7.180957 -20.955848 10.639816 42.904945 -47.747707 -18.158560 0.000000 0.000000 0.000000 -26.799843 3.446225 -3.756767 -22.254522 28.515177 -13.055498 -133.654893 -0.779737 23.207606 0.000000 0.000000 0.000000 -31.586652 -20.350603 4.772609 -46.765599 -31.913756 14.450735 84.751262 -27.189294 -26.993104 0.000000 0.000000 0.000000
-0.140381 0.436625 2.321042 -1.236761 10.870379 -78.531472 37.780038 -52.195427 99.951880 63.930217 -23.354322 21.134337 -17.596027 -45.859219 0.135321 0.000000 0.000000 0.000000 -68.416156 -45.945560 -22.611627 152.848858 47.132616 -17.607173 -36.420456 -20.074562 -166.325747 0.000000 0.000000 0.000000 4.643754 3.428883 -79.925475 -8.283518 19.419072 124.502458 2.695086 -2.373913 -23.585333 40.225853 -39.712143 -12.629324 0.000000 0.000000 0.000000 -17.708529 -2.306919 -2.621940 -25.631665 21.250579 -9.752025 -159.462813 -6.061252 22.685526 0.000000 0.000000 0.000000 -37.155532 -14.560184 -0.714102 -51.846917 -12.212816 10.935388 69.080317 -34.233073 -28.034218 0.000000 0.000000 0.000000
-0.157684 0.347942 2.446400 -1.261331 5.238395 -87.995255 105.045951 -63.978968 40.093242 86.057967 -7.227860 -10.986047 32.102929 -67.272818 -75.399905 0.000000 0.000000 0.000000 -24.505381 -24.769439 -86.148972 136.556236 -4.151063 -5.286214 -2.038354 -25.161768 -120.804377 0.000000 0.000000 0.000000 0.359701 2.550928 -46.577752 -9.001646 10.574092 107.318761 6.538673 -2.488472 -47.228112 22.988647 -20.530509 0.349150 0.000000 0.000000 0.000000 -7.845983 -10.545286 2.817878 -48.226352 11.811222 -10.018536 -169.418070 -15.164994 129.057769 0.000000 0.000000 0.000000 -48.145196 -2.323351 2.550605 -37.355963 0.324193 4.453571 35.884055 -19.917027 -7.712778 0.000000 0.000000 0.000000
